<svg id="Camada_1" data-name="Camada 1" xmlns="http://www.w3.org/2000/svg" viewBox="0 0 1187 444"><defs><style>.cls-1{fill:#8b8b8b;}.cls-2{fill:#8b8b8b;}.cls-3{fill:#8b8b8b;}</style></defs><title>Logo AGERI Transparente</title><path class="cls-1" d="M244.5,86v35H144.18a40,40,0,0,0-29.56,12.73c-.38.41-.75.83-1.12,1.27l-.14.17A36.56,36.56,0,0,0,105,158.58L104.5,291h-37V157.12a72.7,72.7,0,0,1,17.73-47.81l.27-.31.3-.34A67.73,67.73,0,0,1,136.54,86Z"/><circle class="cls-2" cx="157" cy="211.5" r="22.5"/><circle class="cls-2" cx="299" cy="211.5" r="22.5"/><rect class="cls-1" x="128.5" y="241.5" width="198" height="35" transform="translate(-31.5 486.5) rotate(-90)"/><path class="cls-2" d="M406.61,86a57.11,57.11,0,0,0-57.11,57.11V291h35V199h85v92h33V86Zm62.89,91h-85V158.06A44.05,44.05,0,0,1,428.56,114H469.5Z"/><path class="cls-3" d="M572.5,137V239a26,26,0,0,0,6.22,14,28.21,28.21,0,0,0,16.57,9h34.19A26.71,26.71,0,0,0,645,255a24.78,24.78,0,0,0,7.25-13V200H612.91V177H687.5v59.5A54.5,54.5,0,0,1,633,291H592.5a54,54,0,0,1-54-54V136.94A50.94,50.94,0,0,1,589.44,86h97.39a.67.67,0,0,1,.67.67V114H595.29a25.83,25.83,0,0,0-15.54,7A24.12,24.12,0,0,0,572.5,137Z"/><rect class="cls-3" x="1083.5" y="86" width="36" height="205"/><path class="cls-3" d="M755.5,114v63h79v23h-79v30.33A31.67,31.67,0,0,0,787.17,262H868.5v29H777.94a57.44,57.44,0,0,1-57.44-57.44V86h148v28Z"/><path class="cls-3" d="M1024.13,188.82a54.33,54.33,0,0,0,26.28-33.11,56.41,56.41,0,0,0-1.35-34.61c-7.58-20.52-26.82-35.1-49.36-35.1H897.5V291h38.75V200h50.08c15.15,0,27.42,12.67,27.42,28.3V291h38.75V228.46a42.58,42.58,0,0,0-2-13A40.87,40.87,0,0,0,1024.13,188.82ZM936.25,177V115h47.47c16.58,0,30,13.88,30,31a31.39,31.39,0,0,1-8.8,21.92A29.46,29.46,0,0,1,983.72,177Z"/></svg>